<?xml version="1.0" standalone="no"?>
<!DOCTYPE svg PUBLIC "-//W3C//DTD SVG 20010904//EN"
 "http://www.w3.org/TR/2001/REC-SVG-20010904/DTD/svg10.dtd">
<svg version="1.0" xmlns="http://www.w3.org/2000/svg"
 width="300.000000pt" height="300.000000pt" viewBox="0 0 300.000000 300.000000"
 preserveAspectRatio="xMidYMid meet">
<metadata>
Created by potrace 1.10, written by Peter Selinger 2001-2011
</metadata>
<g transform="translate(0.000000,300.000000) scale(0.050000,-0.050000)"
fill="#000000" stroke="none">
<path d="M2440 5724 l0 -282 -75 -13 c-1416 -249 -2357 -1335 -2354 -2719 6
-2395 2896 -3607 4603 -1932 224 220 566 701 566 797 0 36 45 31 258 -25 103
-28 190 -48 193 -45 188 214 356 869 356 1385 0 1705 -1367 3047 -3162 3104
l-385 12 0 -282z m795 -134 c1677 -272 2859 -2174 2184 -3512 -75 -148 104
-189 -1366 312 l-1233 420 0 1405 0 1405 115 0 c63 0 198 -14 300 -30z m-795
-1787 l0 -1258 145 -51 c360 -128 2220 -774 2227 -774 60 0 -221 -430 -408
-623 -1576 -1637 -4382 -235 -3993 1995 171 981 1118 1910 2004 1966 20 2 25
-262 25 -1255z"/>
</g>
</svg>
